<?xml version="1.0" encoding="UTF-8"?>
<svg version="1.1" xmlns="http://www.w3.org/2000/svg" width="1536" height="1024">
<path d="M0 0 C506.88 0 1013.76 0 1536 0 C1536 337.92 1536 675.84 1536 1024 C1029.12 1024 522.24 1024 0 1024 C0 686.08 0 348.16 0 0 Z " fill="#FDFDFD" transform="translate(0,0)"/>
<path d="M0 0 C0.90098419 -0.00095673 1.80196838 -0.00191345 2.73025513 -0.00289917 C4.62795075 -0.00357675 6.52564874 -0.00175203 8.42333984 0.00244141 C11.30441586 0.00778303 14.18533511 0.00248848 17.06640625 -0.00390625 C18.91927117 -0.00324515 20.772136 -0.00196333 22.625 0 C23.90043167 -0.00303635 23.90043167 -0.00303635 25.20162964 -0.00613403 C39.27594343 0.04812796 39.27594343 0.04812796 43.4453125 2.1328125 C44.6209375 2.1328125 45.7965625 2.1328125 47.0078125 2.1328125 C48.1421875 2.1328125 49.2765625 2.1328125 50.4453125 2.1328125 C50.7753125 2.4628125 51.1053125 2.7928125 51.4453125 3.1328125 C53.44489614 3.17362033 55.44576504 3.17535606 57.4453125 3.1328125 C57.4453125 3.7928125 57.4453125 4.4528125 57.4453125 5.1328125 C58.11046875 4.93171875 58.775625 4.730625 59.4609375 4.5234375 C63.3099761 4.01963664 66.51280659 4.87664443 70.1953125 5.8828125 C70.9076001 6.0689209 71.6198877 6.2550293 72.35375977 6.44677734 C76.77629358 7.62107977 81.11429193 8.95690352 85.4296875 10.48046875 C88.36099384 11.42916673 91.34610371 12.03106979 94.359375 12.66015625 C97.12632652 13.28712466 99.77713245 14.17500428 102.4453125 15.1328125 C102.4453125 15.7928125 102.4453125 16.4528125 102.4453125 17.1328125 C106.4053125 17.6278125 106.4053125 17.6278125 110.4453125 18.1328125 C110.4453125 18.7928125 110.4453125 19.4528125 110.4453125 20.1328125 C111.07179688 20.26558594 111.69828125 20.39835937 112.34375 20.53515625 C113.16101563 20.71175781 113.97828125 20.88835937 114.8203125 21.0703125 C115.63242187 21.24433594 116.44453125 21.41835937 117.28125 21.59765625 C119.4453125 22.1328125 119.4453125 22.1328125 121.4453125 23.1328125 C121.4453125 23.7928125 121.4453125 24.4528125 121.4453125 25.1328125 C122.0846875 25.2153125 122.7240625 25.2978125 123.3828125 25.3828125 C127.65072767 26.42801622 131.47638917 28.27373076 135.4453125 30.1328125 C135.4453125 30.7928125 135.4453125 31.4528125 135.4453125 32.1328125 C136.1259375 32.4009375 136.8065625 32.6690625 137.5078125 32.9453125 C140.84242059 34.29334556 144.14274487 35.70817548 147.4453125 37.1328125 C147.4453125 37.7928125 147.4453125 38.4528125 147.4453125 39.1328125 C148.1671875 39.4009375 148.8890625 39.6690625 149.6328125 39.9453125 C152.44297633 41.13182612 154.92947807 42.40766889 157.4453125 44.1328125 C157.4453125 44.7928125 157.4453125 45.4528125 157.4453125 46.1328125 C158.7653125 46.1328125 160.0853125 46.1328125 161.4453125 46.1328125 C162.62300021 47.24320377 163.79097226 48.36726812 164.88671875 49.55859375 C168.74009104 53.45059633 173.2261983 57.39310777 178.4453125 59.1328125 C179.0846875 59.9371875 179.7240625 60.7415625 180.3828125 61.5703125 C182.1771322 64.17204736 182.1771322 64.17204736 184.37890625 65.07421875 C186.75453195 66.29122171 187.88915746 67.57149678 189.5703125 69.6328125 C193.90222836 74.76345471 198.66126088 79.42747471 203.4453125 84.1328125 C205.30047428 85.98797428 206.67938903 87.8140545 208.1953125 89.9453125 C210.17094601 92.6279129 212.05601429 94.7890879 214.6953125 96.8203125 C217.63674245 99.29378768 218.13701411 100.64401678 219.4453125 104.1328125 C220.1671875 104.8546875 220.8890625 105.5765625 221.6328125 106.3203125 C226.35814943 111.04564943 231.4453125 116.25736215 231.4453125 123.1328125 C232.1053125 123.1328125 232.7653125 123.1328125 233.4453125 123.1328125 C233.68765625 123.73609375 233.93 124.339375 234.1796875 124.9609375 C234.51484375 125.76015625 234.85 126.559375 235.1953125 127.3828125 C235.52015625 128.17171875 235.845 128.960625 236.1796875 129.7734375 C237.33420566 132.21516123 237.33420566 132.21516123 239.3671875 133.984375 C242.02645976 136.73362264 243.41787641 139.80682637 244.9453125 143.2578125 C245.25082031 143.93303955 245.55632812 144.6082666 245.87109375 145.30395508 C246.74149286 147.24175054 247.59694802 149.18528578 248.4453125 151.1328125 C248.80625 151.95910156 249.1671875 152.78539062 249.5390625 153.63671875 C250.56822199 156.1164608 251.51598096 158.61366023 252.4453125 161.1328125 C252.703125 161.83003418 252.9609375 162.52725586 253.2265625 163.24560547 C259.35375588 179.93468521 263.63934046 196.29267248 266.12060547 213.89990234 C266.4091834 215.88436385 266.73880201 217.86275996 267.07421875 219.83984375 C275.84019272 276.42022118 257.79134172 337.18232437 224.60546875 383.0859375 C214.38607951 397.01890272 203.03196809 409.86492202 191.359375 422.59106445 C190.41634231 423.61925013 189.47363411 424.64773351 188.53125 425.67651367 C186.40439525 427.99830536 184.27451294 430.31688364 182.1328125 432.625 C175.83075084 439.48974574 170.10752651 446.74047755 164.4453125 454.1328125 C163.95095703 454.77557129 163.45660156 455.41833008 162.94726562 456.08056641 C145.37777241 478.98082928 129.65585185 503.31274206 120.11962891 530.72241211 C117.39703891 538.47430604 114.83989011 544.30838557 107.28738403 548.26263428 C100.76367795 551.06046205 95.23841915 551.67251478 88.1875 551.5234375 C86.64390305 551.51494781 86.64390305 551.51494781 85.06912231 551.50628662 C81.81902276 551.48409953 78.57007239 551.43393665 75.3203125 551.3828125 C73.10157855 551.36272466 70.88282712 551.34447792 68.6640625 551.328125 C63.25742795 551.28429314 57.85145236 551.21756119 52.4453125 551.1328125 C50.87961397 539.92556574 50.09863478 528.92017883 50.12963867 517.60375977 C50.13280688 515.19957346 50.10917674 512.79661478 50.08398438 510.39257812 C49.9996295 489.74021921 52.81532925 467.42405142 67.68359375 451.77734375 C78.21762546 442.05770777 89.1485935 440.76048893 103.0703125 441.078125 C105.26301463 441.10340855 107.45572328 441.12813113 109.6484375 441.15234375 C113.05164733 441.20192889 116.45450321 441.25799268 119.85742188 441.32470703 C123.17840655 441.38555023 126.49894452 441.42077686 129.8203125 441.453125 C130.82271973 441.48004425 131.82512695 441.5069635 132.85791016 441.53469849 C142.17189779 441.59994074 151.1600255 439.17427001 158.4453125 433.1328125 C165.18371414 425.0841661 164.98687246 415.17056344 164.4453125 405.1328125 C164.28289062 404.16730469 164.12046875 403.20179688 163.953125 402.20703125 C163.36643218 398.65528321 163.20230605 395.23184706 163.1328125 391.6328125 C163.09542969 390.364375 163.05804687 389.0959375 163.01953125 387.7890625 C163.68508439 382.07385391 166.83595284 378.61484346 170.6953125 374.5703125 C172.70746563 372.2743292 173.39250457 371.46474808 173.8828125 368.3828125 C173.46552175 365.97787494 173.46552175 365.97787494 172.4453125 363.1328125 C171.1299784 362.43130098 169.79413658 361.76755325 168.4453125 361.1328125 C166.6953125 359.6953125 166.6953125 359.6953125 165.4453125 358.1328125 C165.4453125 357.1428125 165.4453125 356.1528125 165.4453125 355.1328125 C166.04859375 354.81828125 166.651875 354.50375 167.2734375 354.1796875 C173.63269525 351.05292569 173.63269525 351.05292569 178.4453125 346.1328125 C179.70757531 339.01824032 177.3996849 334.23534141 173.84838867 328.18212891 C172.21432907 325.28765013 171.44677845 323.30307253 171.41796875 319.95703125 C172.74375047 316.31239177 174.17566728 315.18364912 177.4453125 313.1328125 C179.55964412 312.22251203 181.70916668 311.39064426 183.8828125 310.6328125 C190.99911152 307.99833611 196.07250529 305.61104541 200.4453125 299.1328125 C201.99101327 295.39736897 202.06673863 291.10095528 201.4453125 287.1328125 C198.28729076 281.14346092 193.5859407 277.67407678 188.34375 273.5 C172.12216719 260.25164531 157.57502491 240.29710534 154.4453125 219.1328125 C153.87547699 213.42511584 154.72688999 208.34872067 155.93359375 202.77734375 C156.87287609 197.92318999 157.19314821 193.06467683 157.4453125 188.1328125 C157.54392578 186.42931641 157.54392578 186.42931641 157.64453125 184.69140625 C158.22034474 165.64984993 155.40754024 143.66047787 145.4453125 127.1328125 C144.9709375 126.01003906 144.4965625 124.88726562 144.0078125 123.73046875 C129.20072437 89.63714833 95.62292664 66.19462844 62.5078125 52.0078125 C55.56899262 49.35276567 48.47644357 47.30635072 41.3203125 45.3203125 C40.24789307 45.01786621 39.17547363 44.71541992 38.07055664 44.40380859 C30.53243263 42.3915689 23.23484016 41.48037464 15.4453125 41.1328125 C16.46109375 41.48472656 17.476875 41.83664063 18.5234375 42.19921875 C47.04231608 52.31691219 70.31110574 72.60211931 83.67504883 99.8828125 C86.02715136 104.92190957 88.01522969 110.06202779 89.8203125 115.3203125 C90.05911133 116.00770508 90.29791016 116.69509766 90.54394531 117.40332031 C99.62206039 145.45219975 95.73100551 178.13981335 82.48486328 204.13085938 C82.14181152 204.79150391 81.79875977 205.45214844 81.4453125 206.1328125 C80.95973877 207.08124023 80.95973877 207.08124023 80.46435547 208.04882812 C68.56248758 230.96915123 49.37716423 249.57459193 29.8059082 266.03710938 C24.06014754 270.8731735 18.43888241 275.8021944 12.91015625 280.88671875 C10.87118659 282.7447339 8.80156536 284.54018911 6.6953125 286.3203125 C-9.41075794 300.45017798 -23.00067348 316.44867284 -33.5546875 335.1328125 C-34.01101563 335.92171875 -34.46734375 336.710625 -34.9375 337.5234375 C-41.09042825 348.90055011 -45.67027679 362.51666731 -45.79296875 375.45703125 C-45.80507637 376.68653252 -45.80507637 376.68653252 -45.81742859 377.94087219 C-45.83125255 379.68167015 -45.84198225 381.42249503 -45.84985352 383.16333008 C-45.8612582 384.91146004 -45.88152208 386.65955848 -45.91137695 388.4074707 C-46.55251931 426.01279806 -28.82136463 457.56040081 -4.5546875 485.1328125 C-3.82765625 485.96039062 -3.100625 486.78796875 -2.3515625 487.640625 C0.92438407 491.31696504 4.24875934 494.93744038 7.66015625 498.48828125 C21.23619516 512.67683025 34.24260378 527.89303821 41.55053711 546.34790039 C41.90659531 547.24497208 42.2626535 548.14204376 42.62950134 549.06629944 C42.89871902 549.74824875 43.16793671 550.43019806 43.4453125 551.1328125 C29.38901781 551.24986683 15.33279924 551.33757537 1.27611637 551.39187336 C-5.25139743 551.41793724 -11.77858318 551.45327797 -18.3059082 551.51000977 C-24.60828934 551.56444203 -30.91035545 551.59425717 -37.21295357 551.60719872 C-39.61427327 551.61641831 -42.01557625 551.63442211 -44.4167614 551.66146278 C-47.78724951 551.6979005 -51.15644538 551.70275146 -54.52709961 551.70043945 C-55.51397263 551.71841583 -56.50084564 551.73639221 -57.5176239 551.75491333 C-64.30435704 551.70472865 -69.02962578 550.11469973 -74.5546875 546.1328125 C-79.11258114 541.37860509 -81.54928349 535.31614152 -83.5546875 529.1328125 C-90.30076146 508.44485237 -100.40991375 490.12250883 -112.5546875 472.1328125 C-113.01375488 471.45105957 -113.47282227 470.76930664 -113.94580078 470.06689453 C-122.67731615 457.21654968 -132.55911153 445.12452661 -143.140625 433.7578125 C-145.0217845 431.71227984 -146.8295923 429.63972592 -148.6328125 427.52734375 C-153.89957884 421.48451182 -159.7055669 415.95048756 -165.43359375 410.34985352 C-172.30232278 403.62347575 -178.60801275 396.70932202 -184.5546875 389.1328125 C-185.12848145 388.41810791 -185.70227539 387.70340332 -186.29345703 386.96704102 C-194.64046375 376.54412786 -201.94190595 365.72931897 -208.5546875 354.1328125 C-208.98378418 353.38837891 -209.41288086 352.64394531 -209.85498047 351.87695312 C-230.08882763 316.41983663 -245.24012737 266.39435848 -237.5546875 225.1328125 C-237.2246875 224.8028125 -236.8946875 224.4728125 -236.5546875 224.1328125 C-236.50840905 222.46678847 -236.51681849 220.79904889 -236.5546875 219.1328125 C-236.59255651 217.46657611 -236.60096595 215.79883653 -236.5546875 214.1328125 C-236.2246875 213.8028125 -235.8946875 213.4728125 -235.5546875 213.1328125 C-234.38322789 208.19045005 -233.5546875 203.34048493 -233.5546875 198.2578125 C-233.5546875 194.96081545 -232.88516731 193.10682618 -231.5546875 190.1328125 C-231.19816383 188.47095217 -230.86877974 186.80321214 -230.5546875 185.1328125 C-229.17222294 178.33496129 -227.73417365 171.93958951 -224.70703125 165.6796875 C-223.5107787 163.0357666 -222.51871416 160.34597872 -221.53930664 157.61547852 C-218.23054299 148.4039421 -214.07380775 139.80463784 -209.5546875 131.1328125 C-209.22726562 130.46507812 -208.89984375 129.79734375 -208.5625 129.109375 C-207.03068489 126.10511746 -205.35170312 123.18539376 -203.6796875 120.2578125 C-203.34066406 119.65839844 -203.00164063 119.05898438 -202.65234375 118.44140625 C-199.63889416 113.15927597 -196.36065236 108.10337641 -192.6796875 103.2578125 C-192.00292969 102.36449219 -192.00292969 102.36449219 -191.3125 101.453125 C-190.73242188 100.68742187 -190.15234375 99.92171875 -189.5546875 99.1328125 C-189.13823975 98.5560376 -188.72179199 97.9792627 -188.29272461 97.38500977 C-184.49047789 92.1758487 -180.32128555 87.47850091 -175.8671875 82.8203125 C-174.81108276 81.70946289 -174.81108276 81.70946289 -173.73364258 80.57617188 C-171.68002033 78.42250437 -169.61893385 76.27629359 -167.5546875 74.1328125 C-167.01553711 73.57029785 -166.47638672 73.0077832 -165.92089844 72.42822266 C-159.52417844 65.77827256 -152.77372284 59.86737015 -145.5546875 54.1328125 C-142.72083454 51.78497654 -139.89031403 49.43322982 -137.0625 47.078125 C-134.64130726 45.20000353 -132.1978765 43.67669354 -129.5546875 42.1328125 C-128.63429688 41.51921875 -127.71390625 40.905625 -126.765625 40.2734375 C-109.49775575 28.76152466 -91.26429704 17.76090391 -70.8984375 12.984375 C-67.02033915 11.99672846 -63.23710782 10.79772216 -59.4296875 9.5703125 C-52.13149497 7.23863531 -44.97854822 5.5026823 -37.3671875 4.6328125 C-33.58744992 4.23858541 -33.58744992 4.23858541 -30.1796875 3.1328125 C-26.46670414 2.10854123 -23.00471859 1.68717356 -19.1796875 1.37890625 C-17.2742063 1.20026739 -15.37599442 0.93792749 -13.48779297 0.62573242 C-8.95916073 0.05817758 -4.55772018 -0.01079888 0 0 Z " fill="#926FC1" transform="translate(732.5546875,170.8671875)"/>
<path d="M0 0 C0.72368192 -0.0055344 1.44736384 -0.01106879 2.19297552 -0.0167709 C4.60674709 -0.03033413 7.01947682 -0.01543269 9.43322754 -0.00050354 C11.16820209 -0.00428831 12.90317361 -0.00978965 14.63813782 -0.01687622 C19.34270953 -0.03082753 24.04691539 -0.01966333 28.75146675 -0.00316501 C33.67741298 0.01069534 38.60333818 0.00422429 43.52929688 0.0007019 C51.80120736 -0.00199944 60.07297269 0.01146886 68.34484863 0.03465271 C77.90499384 0.06126195 87.46489635 0.06300925 97.0250659 0.05126435 C106.22587403 0.0404809 115.42659446 0.04667809 124.62739563 0.06081963 C128.54114355 0.0665745 132.45482719 0.06650065 136.36857605 0.06175423 C140.9782566 0.05697794 145.58767178 0.06711316 150.19730186 0.08870888 C151.88796277 0.09426803 153.57864923 0.09475004 155.2693119 0.08975601 C157.57933008 0.08378877 159.88854081 0.09633511 162.19848633 0.11352539 C164.13638912 0.11717023 164.13638912 0.11717023 166.11344147 0.12088871 C171.08684406 0.66350943 174.36996306 2.23777867 177.84924316 5.81370544 C180.87525604 10.46079665 182.37516467 14.95890895 181.59924316 20.50120544 C179.36558469 25.86198578 176.67954018 29.06940026 171.34194946 31.64312553 C165.11195505 33.59223436 158.31508369 33.06288041 151.84533691 33.03465271 C150.14286554 33.04171713 148.44040045 33.05046434 146.73794556 33.0607605 C142.13048755 33.08320407 137.52337387 33.08032682 132.91588211 33.07143903 C129.0639524 33.06631853 125.21208679 33.0736302 121.36016369 33.0809111 C112.27150525 33.09789366 103.18301478 33.09436028 94.09436035 33.07762146 C84.72838248 33.06069463 75.36287049 33.0765461 65.99694347 33.10884434 C57.94403486 33.13555916 49.89127111 33.14281134 41.83832264 33.13432926 C37.03366056 33.12940644 32.22927885 33.13158098 27.4246521 33.15211678 C22.90673598 33.17050413 18.38948913 33.16447813 13.87160873 33.13991737 C12.21725674 33.13491948 10.56285348 33.13837271 8.90854263 33.15106583 C-7.328867 33.26576137 -7.328867 33.26576137 -13.40075684 27.50120544 C-16.68518392 23.97044633 -17.67222137 21.27724946 -17.90075684 16.56370544 C-17.66957408 11.43915426 -16.50437888 8.58491867 -13.40075684 4.50120544 C-8.84667833 0.83204301 -5.8076068 0.00094079 0 0 Z " fill="#24588C" transform="translate(667.4007568359375,744.4987945556641)"/>
<path d="M0 0 C1.2869426 -0.00845947 2.57388519 -0.01691895 3.89982605 -0.02563477 C5.31363043 -0.01980269 6.72743355 -0.01365824 8.14123535 -0.00723267 C9.63975914 -0.01130063 11.13827992 -0.01664378 12.63679504 -0.02316284 C16.69670559 -0.03681556 20.7563869 -0.0315463 24.81630135 -0.02202559 C29.0695977 -0.01441837 33.32287473 -0.02147755 37.57617188 -0.02618408 C44.71817541 -0.03163854 51.86008581 -0.02445816 59.0020752 -0.01016235 C67.25346576 0.00616359 75.50463393 0.00087486 83.75601912 -0.01564157 C90.84664037 -0.02926527 97.93719476 -0.03117178 105.02782488 -0.02332556 C109.26005733 -0.0186539 113.49218532 -0.01801023 117.72441101 -0.02793503 C121.7037361 -0.0366153 125.68277507 -0.03056358 129.66206932 -0.01325226 C131.12052625 -0.00929306 132.57900736 -0.01041177 134.03745461 -0.01704025 C136.03187817 -0.02526744 138.0263545 -0.01310979 140.02075195 0 C141.69317837 0.00169662 141.69317837 0.00169662 143.39939117 0.00342751 C147.63776468 0.51776151 151.02034869 1.99002285 154.15490723 4.91610718 C158.31108635 10.35111065 159.27803011 13.5944434 158.51037598 20.38095093 C157.16651965 24.78058248 155.09786285 26.98654156 151.28274536 29.54782104 C145.07242135 32.47133726 138.37222615 31.9394653 131.65246582 31.89852905 C130.15364402 31.90395613 128.65482757 31.91108207 127.15602112 31.91976929 C123.10443407 31.93793303 119.05325652 31.93096497 115.00166273 31.91825294 C110.75371199 31.90809282 106.50579521 31.91752662 102.25784302 31.92379761 C95.12776421 31.93106368 87.99785143 31.92151204 80.86779785 31.9024353 C72.63107532 31.88065178 64.39474864 31.88773272 56.15803564 31.90974092 C49.07585148 31.92790471 41.99378633 31.93044899 34.9115864 31.91998625 C30.68606173 31.91375882 26.46072305 31.91289527 22.23521042 31.9261322 C18.26398402 31.93770503 14.29326733 31.92963933 10.32209587 31.90655518 C8.86686613 31.90127638 7.41159332 31.90276772 5.95638084 31.91160583 C3.9664503 31.92257544 1.97642576 31.90636492 -0.01345825 31.8888855 C-1.12581156 31.8873774 -2.23816486 31.88586929 -3.38422585 31.88431549 C-8.73879251 31.01637555 -13.24041684 27.53578089 -16.56774902 23.27938843 C-18.57197454 19.15204267 -18.28548059 14.80308941 -17.48962402 10.38095093 C-14.25898259 2.8108462 -8.03106602 0.00814722 0 0 Z " fill="#254879" transform="translate(679.4896240234375,794.6190490722656)"/>
<path d="M0 0 C1.04671875 0.72703125 2.0934375 1.4540625 3.171875 2.203125 C8.94376409 6.27567618 8.94376409 6.27567618 11 8 C11 8.66 11 9.32 11 10 C11.86818359 10.39251953 11.86818359 10.39251953 12.75390625 10.79296875 C15.13570631 12.07292739 16.92316646 13.51356054 18.9375 15.3125 C19.63359375 15.93382812 20.3296875 16.55515625 21.046875 17.1953125 C23.4312316 19.398458 25.70468492 21.70468492 28 24 C28.78375 24.598125 29.5675 25.19625 30.375 25.8125 C35.20278644 29.83565537 39.43872178 34.81995896 43 40 C43 40.66 43 41.32 43 42 C43.5775 42.20625 44.155 42.4125 44.75 42.625 C47.79332606 44.48481037 49.17260448 47.03613236 51 50 C51.8519268 51.25152764 52.70635554 52.50135379 53.5625 53.75 C63.67061735 68.97615145 73.7549431 84.68190652 79.13671875 102.2734375 C79.97684955 104.92688229 80.97696189 107.43861795 82.0625 110 C86.7846721 121.6953848 88.09262619 134.02173585 89.625 146.4375 C89.94929818 149.01620141 90.27564756 151.5946286 90.60360718 154.17286682 C90.80539235 155.76412928 91.00476629 157.35570001 91.20132446 158.94761658 C91.66724565 162.66940289 92.23923252 166.32809473 93 170 C93.93419434 179.67640803 94.13470143 189.2865299 94 199 C93.67 199 93.34 199 93 199 C92.92483154 198.23034912 92.84966309 197.46069824 92.7722168 196.66772461 C90.15498042 170.20851327 85.89200607 147.62764555 73.83984375 123.703125 C73.28937378 122.60955688 73.28937378 122.60955688 72.7277832 121.49389648 C72.00348156 120.06116786 71.27429611 118.63089574 70.53979492 117.20336914 C68 112.21610168 68 112.21610168 68 110 C67.071875 110.99 67.071875 110.99 66.125 112 C64 114 64 114 62 114 C61.4121875 112.6696875 61.4121875 112.6696875 60.8125 111.3125 C58.92888909 107.87003868 56.8312706 105.68225636 54 103 C53.67 102.34 53.34 101.68 53 101 C53.639375 100.566875 54.27875 100.13375 54.9375 99.6875 C57.26746003 98.08760823 57.26746003 98.08760823 58 95 C57.34 95 56.68 95 56 95 C55.15501953 93.47632813 55.15501953 93.47632813 54.29296875 91.921875 C52.16751531 88.20676534 49.81549541 84.71895124 47.3125 81.25 C46.87752197 80.64510742 46.44254395 80.04021484 45.99438477 79.41699219 C39.86262537 70.96844433 33.16075261 63.06515531 26.1328125 55.3515625 C24.14082441 53.15526793 22.18992688 50.92975315 20.25 48.6875 C15.9609719 43.77872701 11.42217483 39.42644832 6.35546875 35.33203125 C5.90816406 34.89246094 5.46085938 34.45289063 5 34 C5 33.34 5 32.68 5 32 C4.42894531 31.75121094 3.85789062 31.50242187 3.26953125 31.24609375 C0.65945989 29.81302531 -1.15897987 28.11931629 -3.3125 26.0625 C-37.54889021 -5.25801556 -80.30995737 -19.08969702 -125 -28 C-125 -28.99 -125 -29.98 -125 -31 C-80.36328968 -37.06423013 -36.64124286 -26.17231633 0 0 Z " fill="#FD918B" transform="translate(873,225)"/>
<path d="M0 0 C41.58 0 83.16 0 126 0 C122.1172893 12.942369 117.48455723 21.46629998 108 31 C107.40832031 31.62648438 106.81664062 32.25296875 106.20703125 32.8984375 C94.19215248 44.62156425 77.00776248 49.52438906 60.64208984 49.34985352 C42.9982845 48.79697209 27.75099349 40.84045215 15.4453125 28.421875 C9.34745905 21.63824471 0 9.59538867 0 0 Z " fill="#243B66" transform="translate(686,843)"/>
<path d="M0 0 C-0.67877197 0.28085449 -1.35754395 0.56170898 -2.05688477 0.85107422 C-24.99542116 10.42254984 -41.57889711 21.20017749 -59 39 C-58.690625 39.61875 -58.38125 40.2375 -58.0625 40.875 C-54.84024059 47.31951881 -54.80128301 54.28031714 -57.0234375 61.17578125 C-61.74852806 71.23944099 -69.59065337 78.69027195 -77.43359375 86.390625 C-78.00144089 86.94841141 -78.56928802 87.50619781 -79.15434265 88.08088684 C-81.4983799 90.37932528 -83.84369423 92.67613271 -86.2043457 94.95751953 C-93.60706533 102.12488961 -100.0852703 109.35269572 -105.84985352 117.90820312 C-109.41655841 123.03693604 -113.58930754 127.58930754 -118 132 C-119.01241685 133.32392972 -120.01439389 134.65599167 -121 136 C-120.67 134.35 -120.34 132.7 -120 131 C-121.216875 131.103125 -122.43375 131.20625 -123.6875 131.3125 C-126.95358402 131.27203524 -127.96636129 131.02047573 -130.875 129.25 C-134.92386431 123.05761928 -135.31474741 115.27853377 -135 108 C-134.44921875 105.76171875 -134.44921875 105.76171875 -133.6875 103.6875 C-133.41164063 102.91921875 -133.13578125 102.1509375 -132.8515625 101.359375 C-132.57054687 100.58078125 -132.28953125 99.8021875 -132 99 C-131.51909379 97.47971584 -131.0399012 95.95888845 -130.5625 94.4375 C-127.77874965 86.25496111 -123.55895767 79.74791915 -118.44116211 72.83520508 C-116.52360004 70.23091677 -115.03013231 68.09039693 -114 65 C-113.34 65 -112.68 65 -112 65 C-111.773125 64.278125 -111.54625 63.55625 -111.3125 62.8125 C-108.68106963 57.17372064 -103.34174785 53.50963963 -98.671875 49.55078125 C-96.89673637 48.08649533 -96.89673637 48.08649533 -96 46 C-93.5790331 44.73144908 -91.15765147 43.53982114 -88.6875 42.375 C-80.2896552 38.2971914 -72.77187503 33.34811395 -65.1328125 27.98828125 C-15.82298969 -5.2743299 -15.82298969 -5.2743299 0 0 Z " fill="#F5FDFD" transform="translate(684,213)"/>
<path d="M0 0 C0.66 0 1.32 0 2 0 C2.20625 1.258125 2.4125 2.51625 2.625 3.8125 C5.00366904 14.50807569 11.28002197 23.71930842 20.375 29.6875 C27.08104436 33.76319497 33.35190041 36.25569658 41 38 C37.87100872 40.08599418 35.48331609 40.77754602 31.875 41.75 C21.14049855 44.99420488 13.38736815 50.79633717 7.52734375 60.41796875 C4.64389198 65.84020313 3.07085312 70.96428239 2 77 C1.34 77 0.68 77 0 77 C-0.185625 75.783125 -0.37125 74.56625 -0.5625 73.3125 C-2.70347142 63.76859219 -8.02761435 53.87013385 -16 48 C-23.10731548 43.5343416 -30.97133714 41.25255588 -39 39 C-36.21613301 37.14408867 -34.7076262 36.58199722 -31.5625 35.8125 C-20.51437504 32.55451279 -12.14172201 26.78126099 -6 17 C-3.04839733 11.56905109 -0.50587647 6.23914317 0 0 Z " fill="#FDC056" transform="translate(706,55)"/>
<path d="M0 0 C0.66 0 1.32 0 2 0 C2.15855469 0.61746094 2.31710937 1.23492187 2.48046875 1.87109375 C3.99380941 7.36426953 5.91243426 12.08890769 8.81640625 16.9921875 C10 19 10 19 10.90234375 21.1328125 C12.2986139 23.50796243 13.48759951 23.92708876 16 25 C16.80695312 25.474375 17.61390625 25.94875 18.4453125 26.4375 C24.56263345 30.00445099 29.96600963 32.11502941 37 33 C36 35 36 35 33.6640625 35.82421875 C32.66117188 36.10910156 31.65828125 36.39398438 30.625 36.6875 C19.44156096 40.29549045 11.2967652 45.85000665 5.7890625 56.296875 C3.80710182 60.48569971 2.47698457 64.34940044 2 69 C1.34 69 0.68 69 0 69 C-0.08636719 68.38253906 -0.17273438 67.76507813 -0.26171875 67.12890625 C-1.35112289 60.56249782 -3.39160764 55.57357836 -7 50 C-7.556875 49.113125 -8.11375 48.22625 -8.6875 47.3125 C-15.70601887 40.29398113 -25.32048463 36.56121216 -35 35 C-35 34.34 -35 33.68 -35 33 C-34.26136719 32.85304687 -33.52273438 32.70609375 -32.76171875 32.5546875 C-22.01217997 30.17804233 -12.94677211 26.68402659 -6.43359375 17.4375 C-3.18971506 11.92202233 -1.13656753 6.28454986 0 0 Z " fill="#A134C4" transform="translate(920,122)"/>
<path d="M0 0 C1.91781519 0.08029131 3.83529156 0.17702535 5.75 0.3125 C11.60289751 13.74148312 13.59612517 27.33700879 15.375 41.75 C15.69929818 44.32870141 16.02564756 46.9071286 16.35360718 49.48536682 C16.55539235 51.07662928 16.75476629 52.66820001 16.95132446 54.26011658 C17.41724565 57.98190289 17.98923252 61.64059473 18.75 65.3125 C19.68419434 74.98890803 19.88470143 84.5990299 19.75 94.3125 C19.42 94.3125 19.09 94.3125 18.75 94.3125 C18.67483154 93.54284912 18.59966309 92.77319824 18.5222168 91.98022461 C15.90498042 65.52101327 11.64200607 42.94014555 -0.41015625 19.015625 C-0.77713623 18.28657959 -1.14411621 17.55753418 -1.5222168 16.80639648 C-2.24651844 15.37366786 -2.97570389 13.94339574 -3.71020508 12.51586914 C-6.25 7.52860168 -6.25 7.52860168 -6.25 5.3125 C-7.178125 6.3025 -7.178125 6.3025 -8.125 7.3125 C-10.25 9.3125 -10.25 9.3125 -12.25 9.3125 C-12.58 7.9925 -12.91 6.6725 -13.25 5.3125 C-12.26 5.3125 -11.27 5.3125 -10.25 5.3125 C-9.775625 4.4875 -9.30125 3.6625 -8.8125 2.8125 C-5.60418157 -0.31756676 -4.37366843 -0.02569723 0 0 Z " fill="#FC7088" transform="translate(947.25,329.6875)"/>
<path d="M0 0 C-0.67877197 0.28085449 -1.35754395 0.56170898 -2.05688477 0.85107422 C-25.00410737 10.4261743 -41.55838217 21.22007493 -59 39 C-59.66 39.66 -60.32 40.32 -61 41 C-61.50015625 40.67257813 -62.0003125 40.34515625 -62.515625 40.0078125 C-65.91792104 38.6276358 -69.14350651 38.78637162 -72.75 38.875 C-73.44738281 38.88402344 -74.14476562 38.89304688 -74.86328125 38.90234375 C-76.57566958 38.92580112 -78.28788004 38.96166896 -80 39 C-67.20606063 28.57173244 -53.40776093 20.70409428 -38.67700195 13.34326172 C-36.94430011 12.47382939 -35.21829723 11.59086027 -33.50073242 10.69189453 C-27.19930788 7.42532647 -20.76904726 4.93402401 -14.0625 2.625 C-13.03576172 2.25761719 -12.00902344 1.89023438 -10.95117188 1.51171875 C-9.96826172 1.17011719 -8.98535156 0.82851562 -7.97265625 0.4765625 C-7.08843994 0.16799316 -6.20422363 -0.14057617 -5.29321289 -0.45849609 C-3 -1 -3 -1 0 0 Z " fill="#A9EAE7" transform="translate(684,213)"/>
<path d="M0 0 C1.76159003 2.64238505 2.91536527 5.05023175 4.1875 7.9375 C6.70654667 13.05757416 8.81997941 14.73962738 14 17 C15.33661728 17.66005792 16.6707636 18.32520165 18 19 C16.98679687 19.36351562 16.98679687 19.36351562 15.953125 19.734375 C9.05620959 22.08872494 9.05620959 22.08872494 4 27 C3.11446529 29.97066004 2.4966141 32.94190262 2 36 C1.34 36 0.68 36 0 36 C-0.20753906 35.25234375 -0.41507813 34.5046875 -0.62890625 33.734375 C-2.53219955 27.04126777 -2.53219955 27.04126777 -7.375 22.4375 C-10.56174926 21.17378909 -13.70961661 19.96303904 -17 19 C-14.63019873 17.42013249 -12.63089136 16.37397933 -10.0625 15.25 C-5.40983212 12.93647157 -3.05808098 10.02221982 -1.3203125 5.05859375 C-0.82730557 3.38709764 -0.40669582 1.6945659 0 0 Z " fill="#FDC460" transform="translate(612,126)"/>
<path d="M0 0 C0.66 0 1.32 0 2 0 C2.22042969 0.88751953 2.22042969 0.88751953 2.4453125 1.79296875 C4.13839474 7.75767802 5.76466041 10.61242733 11 14 C14.21265916 15.32350658 14.21265916 15.32350658 17 16 C16.484375 16.2475 15.96875 16.495 15.4375 16.75 C14.633125 17.1625 13.82875 17.575 13 18 C11.845 18.474375 10.69 18.94875 9.5 19.4375 C5.00495271 21.94119301 4.09640215 26.04330022 2.62890625 30.734375 C2.31759766 31.85585937 2.31759766 31.85585937 2 33 C1.34 33 0.68 33 0 33 C-1.33333333 29 -2.66666667 25 -4 21 C-6.80376352 19.87050779 -6.80376352 19.87050779 -10 19 C-11.67163195 18.34588315 -13.34015202 17.68346682 -15 17 C-12.70635817 15.14744314 -10.62264525 13.8228743 -7.9375 12.5625 C-3.40922555 10.15384338 -2.35314406 8.11519176 -0.8125 3.25 C-0.544375 2.1775 -0.27625 1.105 0 0 Z " fill="#942DAD" transform="translate(978,215)"/>
<path d="M0 0 C-2.51796045 1.28671107 -5.00457133 2.41568469 -7.625 3.5 C-14.34993781 6.83718719 -20.99027397 13.06394957 -24 20 C-24.37898437 20.72574219 -24.75796875 21.45148437 -25.1484375 22.19921875 C-27.93620176 27.85465133 -29.80635845 33.45036252 -31.25 39.5625 C-31.41290527 40.24594482 -31.57581055 40.92938965 -31.74365234 41.63354492 C-33.7263483 50.51353655 -34.19392261 59.42405603 -34.1875 68.5 C-34.18814453 69.4681665 -34.18878906 70.43633301 -34.18945312 71.43383789 C-34.10621628 83.32819331 -33.07513954 95.16059771 -32 107 C-25.89799753 106.95564683 -19.7970101 106.88560312 -13.69555664 106.79248047 C-11.62304799 106.76437975 -9.55043434 106.74311139 -7.4777832 106.72900391 C-4.48594832 106.70742299 -1.49536151 106.66069558 1.49609375 106.609375 C2.41208847 106.60814636 3.32808319 106.60691772 4.27183533 106.60565186 C12.83784711 106.41375955 20.08522478 103.64054136 26.4921875 97.859375 C29.31722146 94.37565437 30.65342812 90.23208305 32 86 C32.66 86.33 33.32 86.66 34 87 C31.43698289 94.91192239 28.38709244 101.10445012 20.8298645 105.16644287 C14.31299884 107.93024754 8.77521068 108.53932391 1.7421875 108.390625 C0.71312286 108.38496521 -0.31594177 108.37930542 -1.37619019 108.37347412 C-4.62628974 108.35128703 -7.87524011 108.30112415 -11.125 108.25 C-13.34373395 108.22991216 -15.56248538 108.21166542 -17.78125 108.1953125 C-23.18788455 108.15148064 -28.59386014 108.08474869 -34 108 C-35.56569853 96.79275324 -36.34667772 85.78736633 -36.31567383 74.47094727 C-36.31250562 72.06676096 -36.33613576 69.66380228 -36.36132812 67.25976562 C-36.445683 46.60740671 -33.62998325 24.29123892 -18.76171875 8.64453125 C-13.01759364 3.34448976 -8.14222413 -0.58158744 0 0 Z " fill="#B4258C" transform="translate(819,614)"/>
<path d="M0 0 C2 2 2 2 3.8125 5.3125 C5.76749016 8.83885961 8.0360939 11.28308607 11 14 C10.071875 14.5775 9.14375 15.155 8.1875 15.75 C5.35587669 17.74879292 3.83974043 19.14840233 2 22 C1.34 22.99 0.68 23.98 0 25 C-0.27972656 24.45730469 -0.55945313 23.91460938 -0.84765625 23.35546875 C-3.87144869 17.95931183 -6.08505609 15.85566868 -12 14 C-11 12 -11 12 -7.6875 10.375 C-3.26409592 7.99036653 -1.77683764 4.54693856 0 0 Z " fill="#F6F3FB" transform="translate(654,546)"/>
<path d="M0 0 C3.15661912 2.92175162 5.21924321 6.32426853 7.5 9.94140625 C9.00066377 12.25018978 9.00066377 12.25018978 12 14 C10.3603125 14.61875 10.3603125 14.61875 8.6875 15.25 C5.48984058 16.60285591 3.79346574 17.94055844 2 21 C-2.92980953 18.99155908 -6.09403383 15.35894926 -9 11 C-7.88625 9.948125 -7.88625 9.948125 -6.75 8.875 C-4.02182777 6.02281994 -2.08697046 3.3236937 0 0 Z " fill="#FDF7F9" transform="translate(935,315)"/>
<path d="M0 0 C2.5625 1.5 2.5625 1.5 4 3 C3.69209738 5.84809926 3.34521809 7.58286148 1.5 9.8125 C-2.28274058 11.60930177 -5.8856804 11.5888384 -10 11 C-12.5625 9.5 -12.5625 9.5 -14 8 C-13.69209738 5.15190074 -13.34521809 3.41713852 -11.5 1.1875 C-7.71725942 -0.60930177 -4.1143196 -0.5888384 0 0 Z " fill="#D4D1F3" transform="translate(693,426)"/>
<path d="M0 0 C2.9375 2.0625 2.9375 2.0625 5 4 C3.50374776 7.80864206 1.48155126 9.86359354 -2 12 C-5.68201008 12 -7.45074479 11.39433707 -10.4375 9.25 C-12 7 -12 7 -12 4.4375 C-9.5494422 -1.53573463 -5.83657182 -1.53593995 0 0 Z " fill="#DEDDF6" transform="translate(719,377)"/>
<path d="M0 0 C6.37899388 4.84670292 6.37899388 4.84670292 8.3125 8.4375 C7.80243538 12.6200299 4.89007241 15.09317354 2 18 C-1.32141645 16.4353658 -3.1786641 15.27840462 -5 12 C-5.53908066 8.90028621 -5.63053923 6.96332382 -3.875 4.28125 C-2.64550464 2.80026695 -1.3274688 1.39384224 0 0 Z " fill="#F2F5FC" transform="translate(567,484)"/>
<path d="M0 0 C1.18637306 -0.00087616 1.18637306 -0.00087616 2.39671326 -0.00177002 C4.99426143 0.00100246 7.59064219 0.03205351 10.18798828 0.06347656 C11.9954465 0.07094196 13.80291285 0.07663348 15.61038208 0.08062744 C20.35508788 0.09586031 25.09929968 0.13512172 29.84381104 0.17944336 C34.69023965 0.22044684 39.5367485 0.23864928 44.38330078 0.25878906 C53.88351718 0.30161838 63.38336781 0.36984114 72.88330078 0.45410156 C72.88330078 0.78410156 72.88330078 1.11410156 72.88330078 1.45410156 C71.43750137 1.46290092 71.43750137 1.46290092 69.9624939 1.47187805 C60.86962299 1.52914329 51.77699036 1.60192478 42.68436241 1.68981647 C38.00997015 1.73450387 33.33566472 1.7737636 28.66113281 1.80053711 C24.14816156 1.82658635 19.63552474 1.86700023 15.12276077 1.91728783 C13.4028706 1.93394558 11.68292259 1.94546666 9.9629631 1.95171547 C7.54982368 1.96136856 5.1375377 1.98944128 2.72460938 2.02172852 C1.66293045 2.01957588 1.66293045 2.01957588 0.57980347 2.01737976 C-5.19693281 2.12636983 -9.10277059 3.75816166 -13.49169922 7.45410156 C-15.98692978 12.06068106 -15.97947583 16.33448497 -15.11669922 21.45410156 C-13.77634078 24.41309355 -12.14637629 26.92425407 -10.11669922 29.45410156 C-14.32727403 27.54342055 -16.01020918 25.66708165 -18.11669922 21.45410156 C-18.92379104 16.55505418 -18.77891544 12.04782233 -16.49169922 7.57910156 C-11.87508357 1.50460729 -7.44926567 -0.14558726 0 0 Z " fill="#196CA5" transform="translate(668.11669921875,744.5458984375)"/>
<path d="M0 0 C1.30022095 0.11746582 1.30022095 0.11746582 2.62670898 0.23730469 C3.84209351 0.36347168 3.84209351 0.36347168 5.08203125 0.4921875 C5.80237549 0.56550293 6.52271973 0.63881836 7.26489258 0.71435547 C9.1875 1.125 9.1875 1.125 12.1875 3.125 C10.46110647 3.3551858 8.7309918 3.55741876 7 3.75 C5.55560547 3.92402344 5.55560547 3.92402344 4.08203125 4.1015625 C0.61413907 4.12243246 -2.26011845 3.75414741 -5.65625 3.15625 C-13.83189321 1.80524236 -21.86750261 1.90428707 -30.125 2 C-31.65559302 2.01006222 -33.18619254 2.01918227 -34.71679688 2.02734375 C-38.4155027 2.04907212 -42.11395769 2.08341819 -45.8125 2.125 C-45.8125 1.795 -45.8125 1.465 -45.8125 1.125 C-30.35129369 -0.75723381 -15.53734459 -1.44351977 0 0 Z " fill="#BDA7BD" transform="translate(741.8125,207.875)"/>
<path d="M0 0 C0.66 0.33 1.32 0.66 2 1 C3.39879651 5.5017606 3.48352124 9.80058654 1.5625 14.125 C-3.275517 22.30741802 -10.13916836 25.87722357 -18.80786133 28.95947266 C-23.5196032 30.60081766 -23.5196032 30.60081766 -27 34 C-27.4938728 38.4448552 -26.57907394 41.8549309 -25 46 C-27.74089824 43.63286061 -29.02493482 41.49398354 -30 38 C-29.9375 34.9375 -29.9375 34.9375 -29 32 C-25.48178785 28.69211575 -22.09232392 27.07930257 -17.5625 25.5 C-10.44620098 22.86552361 -5.37280721 20.47823291 -1 14 C0.0272205 10.87831693 0.10555276 8.02200942 0.0625 4.75 C0.05347656 3.85796875 0.04445313 2.9659375 0.03515625 2.046875 C0.02355469 1.37140625 0.01195312 0.6959375 0 0 Z " fill="#EC4C91" transform="translate(934,456)"/>
<path d="M0 0 C1 2 1 2 0.375 4.125 C-0.74233281 6.46124133 -1.90949354 8.46516671 -3.3125 10.625 C-8.47692549 18.74268933 -11.64852748 27.62535744 -14.796875 36.671875 C-16.32325195 40.89419046 -18.10587963 44.93114883 -20 49 C-21.44030429 44.67908712 -19.67919261 41.58026497 -18.125 37.5 C-17.81127441 36.66428467 -17.49754883 35.82856934 -17.17431641 34.9675293 C-14.80904977 28.80435644 -12.18819444 22.78355572 -9.375 16.8125 C-9.0155127 16.04808594 -8.65602539 15.28367187 -8.28564453 14.49609375 C-5.8461234 9.44192912 -3.06656594 4.69861623 0 0 Z " fill="#76F9FA" transform="translate(526,294)"/>
<path d="M0 0 C15.01984454 -0.17670405 29.99458499 0.37185081 45 1 C45 1.33 45 1.66 45 2 C29.91325305 3.30178402 15.08477641 3.11004925 0 2 C0 1.34 0 0.68 0 0 Z " fill="#CA3A97" transform="translate(824,612)"/>
<path d="M0 0 C-0.54269531 0.31453125 -1.08539062 0.6290625 -1.64453125 0.953125 C-2.71767578 1.59507812 -2.71767578 1.59507812 -3.8125 2.25 C-4.87404297 2.87648438 -4.87404297 2.87648438 -5.95703125 3.515625 C-9.07443537 5.7806605 -10.75353708 7.67731567 -11.46875 11.515625 C-11.54742132 18.39936585 -10.32354292 22.61101257 -6 28 C-10.21057481 26.08931899 -11.89350996 24.21298009 -14 20 C-14.80709183 15.10095262 -14.66221622 10.59372077 -12.375 6.125 C-8.90743905 1.56241981 -5.8401548 -1.91315416 0 0 Z " fill="#2D8FBF" transform="translate(664,746)"/>
<path d="M0 0 C3.56219991 3.07644538 4.65388411 6.26942056 5.5625 10.8125 C4.68931963 15.76052212 1.59520402 18.63506732 -2 22 C-4.9375 24 -4.9375 24 -7 25 C-6.38722388 27.96175123 -5.74627478 29.38058783 -4 32 C-6.86207152 30.71700242 -9.0245088 29.469364 -11 27 C-11 26.01 -11 25.02 -11 24 C-10.39671875 23.68546875 -9.7934375 23.3709375 -9.171875 23.046875 C-2.81261725 19.92011319 -2.81261725 19.92011319 2 15 C2.78776217 9.6595863 2.05007349 4.99705414 0 0 Z " fill="#E4448E" transform="translate(909,502)"/>
<path d="M0 0 C-12.375 5.445 -12.375 5.445 -25 11 C-25.33 9.68 -25.66 8.36 -26 7 C-22.23437016 5.63104454 -18.46177806 4.28240931 -14.6875 2.9375 C-13.61564453 2.54755859 -12.54378906 2.15761719 -11.43945312 1.75585938 C-10.41142578 1.39169922 -9.38339844 1.02753906 -8.32421875 0.65234375 C-7.37635498 0.31195068 -6.42849121 -0.02844238 -5.4519043 -0.37915039 C-3 -1 -3 -1 0 0 Z " fill="#ACCDD0" transform="translate(684,213)"/>
<path d="M0 0 C0.99 0.33 1.98 0.66 3 1 C2.52949219 1.36351562 2.05898438 1.72703125 1.57421875 2.1015625 C-2.47192944 5.36863868 -5.00283426 8.06582581 -7 13 C-7.99 13 -8.98 13 -10 13 C-10.26554688 12.45730469 -10.53109375 11.91460938 -10.8046875 11.35546875 C-11.15789063 10.64003906 -11.51109375 9.92460938 -11.875 9.1875 C-12.22304688 8.47980469 -12.57109375 7.77210938 -12.9296875 7.04296875 C-14.0656486 4.78753582 -14.0656486 4.78753582 -16 2 C-12.17053157 3.45255699 -10.87949705 5.42895561 -9 9 C-8.51789062 8.43410156 -8.03578125 7.86820313 -7.5390625 7.28515625 C-6.90742187 6.55167969 -6.27578125 5.81820312 -5.625 5.0625 C-4.99851562 4.33160156 -4.37203125 3.60070312 -3.7265625 2.84765625 C-2 1 -2 1 0 0 Z " fill="#6538C7" transform="translate(663,560)"/>
<path d="M0 0 C7.46357384 9.48899073 5.16126922 26.37069714 5 38 C4.67 38 4.34 38 4 38 C3.52023285 33.54173107 3.04129633 29.08337328 2.5625 24.625 C2.36043945 22.74748047 2.36043945 22.74748047 2.15429688 20.83203125 C1.40926939 13.89055569 0.68021663 6.94814424 0 0 Z " fill="#FC5F7F" transform="translate(962,386)"/>
<path d="M0 0 C18.056 -0.296 18.056 -0.296 23 3 C15.50114087 3.95346319 8.25243142 4.59992824 1 2 C0.67 1.34 0.34 0.68 0 0 Z " fill="#E6C5D3" transform="translate(731,208)"/>
<path d="M0 0 C2.65985885 2.41951016 4.38306879 5.06288386 6.25 8.125 C9.51956301 13.36048363 13.110572 18.21210231 17 23 C16.67 23.66 16.34 24.32 16 25 C11.37570724 20.83221877 8.36868219 16.13429077 5.1875 10.8125 C4.68541016 9.99330078 4.18332031 9.17410156 3.66601562 8.33007812 C0 2.26992985 0 2.26992985 0 0 Z " fill="#7D25B6" transform="translate(701,621)"/>
<path d="M0 0 C4.29 0.66 8.58 1.32 13 2 C12 4 12 4 9.453125 5.03515625 C8.39609375 5.37417969 7.3390625 5.71320313 6.25 6.0625 C5.20328125 6.40410156 4.1565625 6.74570313 3.078125 7.09765625 C0.39112598 7.88534251 -2.24627634 8.50534964 -5 9 C-2.37801226 6.84622436 -0.35595828 5.59927826 3 5 C2.2236068 1.9254644 2.2236068 1.9254644 0 0 Z " fill="#9B1FC0" transform="translate(944,153)"/>
<path d="M0 0 C0.66 0.33 1.32 0.66 2 1 C-7.75624462 12.416882 -7.75624462 12.416882 -12 16 C-12.66 16 -13.32 16 -14 16 C-14 14 -14 14 -12 11.8125 C-9.00907825 8.92471348 -5.84221906 6.23842255 -2.671875 3.55078125 C-0.89673637 2.08649533 -0.89673637 2.08649533 0 0 Z " fill="#D6FCFC" transform="translate(588,259)"/>
<path d="M0 0 C5.96260189 4.82082706 10.96679794 10.22494276 16 16 C15.67 16.66 15.34 17.32 15 18 C11.73350526 14.82424122 8.84225739 11.55282173 6 8 C5.113125 7.13375 4.22625 6.2675 3.3125 5.375 C1 3 1 3 0 0 Z " fill="#8F23AF" transform="translate(734,664)"/>
<path d="M0 0 C0 3 0 3 -1.27734375 4.47265625 C-1.82519531 4.99730469 -2.37304688 5.52195312 -2.9375 6.0625 C-6.33413257 9.79322757 -6.70475419 12.82180808 -6.796875 17.765625 C-7 20 -7 20 -9 23 C-9.62487946 12.2729026 -9.62487946 12.2729026 -7.3125 7.5625 C-4.95270899 4.94759644 -2.56107006 2.41878839 0 0 Z " fill="#DF388B" transform="translate(905,544)"/>
<path d="M0 0 C0.99 0.33 1.98 0.66 3 1 C2.505 1.37125 2.01 1.7425 1.5 2.125 C-0.66646626 4.83308283 -0.33347559 6.59854896 0 10 C0.92414941 13.27564363 0.92414941 13.27564363 2 16 C-0.74089824 13.63286061 -2.02493482 11.49398354 -3 8 C-2.57446809 2.57446809 -2.57446809 2.57446809 0 0 Z " fill="#E33D89" transform="translate(907,486)"/>
<path d="M0 0 C0.99 0.33 1.98 0.66 3 1 C1.38113585 2.67262717 -0.2452729 4.33795537 -1.875 6 C-2.77992188 6.928125 -3.68484375 7.85625 -4.6171875 8.8125 C-7 11 -7 11 -9 11 C-8.67 10.01 -8.34 9.02 -8 8 C-7.34 8 -6.68 8 -6 8 C-6 7.34 -6 6.68 -6 6 C-4.37550757 4.29220027 -2.70779973 2.62449243 -1 1 C-0.67 0.67 -0.34 0.34 0 0 Z " fill="#743DD3" transform="translate(736,456)"/>
<path d="M0 0 C0.66 0 1.32 0 2 0 C2.66 2.64 3.32 5.28 4 8 C2.35 8.33 0.7 8.66 -1 9 C-2.60031344 5.79937313 -1.03173691 3.27728194 0 0 Z " fill="#AE4BD0" transform="translate(978,215)"/>
<path d="M0 0 C0.99 0.33 1.98 0.66 3 1 C2.773125 1.5775 2.54625 2.155 2.3125 2.75 C1.73494807 5.12172477 1.73494807 5.12172477 3.4375 7.25 C3.953125 7.8275 4.46875 8.405 5 9 C2.13792848 7.71700242 -0.0245088 6.469364 -2 4 C-2 3.01 -2 2.02 -2 1 C-1.34 0.67 -0.68 0.34 0 0 Z " fill="#E13A86" transform="translate(900,525)"/>
<path d="M0 0 C0.66 0 1.32 0 2 0 C2.33 2.31 2.66 4.62 3 7 C2.34 7 1.68 7 1 7 C0.67 7.66 0.34 8.32 0 9 C-1.10844919 5.67465243 -0.84454356 3.37817425 0 0 Z " fill="#C869EA" transform="translate(920,122)"/>
<path d="M0 0 C3.2441189 1.04275251 4.60194664 2.61240491 6.3125 5.4375 C8 9 8 9 7 12 C4.35118807 9.35118807 3.44592693 6.43407646 2 3 C1.34 2.01 0.68 1.02 0 0 Z " fill="#6941CC" transform="translate(647,562)"/>
<path d="M0 0 C1.09898702 3.29696105 0.87124444 4.40494903 0.0625 7.6875 C-0.22947266 8.89986328 -0.22947266 8.89986328 -0.52734375 10.13671875 C-0.68332031 10.75160156 -0.83929687 11.36648437 -1 12 C-1.66 12 -2.32 12 -3 12 C-3.25 5.375 -3.25 5.375 -1 2 C-0.67 1.34 -0.34 0.68 0 0 Z " fill="#F9B25D" transform="translate(709,120)"/>
<path d="M0 0 C0.99 0 1.98 0 3 0 C3 1.98 3 3.96 3 6 C2.01 5.67 1.02 5.34 0 5 C-0.66 5.66 -1.32 6.32 -2 7 C-1.125 1.125 -1.125 1.125 0 0 Z " fill="#6945CC" transform="translate(654,543)"/>
<path d="M0 0 C2.69082872 0.17635452 5.32851446 0.61835921 8 1 C7.67 1.66 7.34 2.32 7 3 C3.9375 3.625 3.9375 3.625 1 4 C0.34 3.01 -0.32 2.02 -1 1 C-0.67 0.67 -0.34 0.34 0 0 Z " fill="#AB29D0" transform="translate(949,154)"/>
<path d="M0 0 C1.9451 2.91765 2.45276317 4.62537285 3 8 C1.35 8.33 -0.3 8.66 -2 9 C-1.34 6.03 -0.68 3.06 0 0 Z " fill="#FEDB6F" transform="translate(612,126)"/>
<path d="M0 0 C0.66 0 1.32 0 2 0 C2.33 1.98 2.66 3.96 3 6 C1.35 7.32 -0.3 8.64 -2 10 C-1.34 6.7 -0.68 3.4 0 0 Z " fill="#FDE36A" transform="translate(706,55)"/>
<path d="M0 0 C2.24107496 2.88138209 4.33168894 5.74679343 6 9 C5.67 9.99 5.34 10.98 5 12 C2.32522069 9.32522069 1.3535886 6.507025 0 3 C0 2.01 0 1.02 0 0 Z " fill="#7225AD" transform="translate(643,681)"/>
<path d="M0 0 C0.66 0.33 1.32 0.66 2 1 C0.3125 3.0625 0.3125 3.0625 -2 5 C-4.75 4.75 -4.75 4.75 -7 4 C-4.61426621 2.10786631 -2.92824652 0.97608217 0 0 Z " fill="#A13EBB" transform="translate(970,228)"/>
<path d="M0 0 C5.875 4.625 5.875 4.625 7 8 C5 8 5 8 2.375 5.6875 C0 3 0 3 0 0 Z " fill="#8421B4" transform="translate(723,652)"/>
<path d="M0 0 C2.97 0 5.94 0 9 0 C8.01 0.33 7.02 0.66 6 1 C6 1.66 6 2.32 6 3 C3.5625 2.625 3.5625 2.625 1 2 C0.67 1.34 0.34 0.68 0 0 Z " fill="#D1B4CB" transform="translate(731,208)"/>
</svg>
